# xmcd CD database file
#
# Track frame offsets:
#	150
#	19648
#	37904
#	59626
#	76261
#	93095
#	114316
#	131802
#	148787
#	170987
#	188827
#	204214
#	218620
#	241855
#	261837
#	280685
#
# Disc length: 3964 seconds
#
# Revision: 0
# Processed by: cddbd v1.4PL0 Copyright (c) Steve Scherf et al.
# Submitted via: CDex 1.50beta9
#
DISCID=db0f7a10
DTITLE=Various Artist - Platinum Hits 2003
DYEAR=1900
DGENRE=
TTITLE0=A New Day Has Come
TTITLE1=Ain't It Funny
TTITLE2=My Sacrifice
TTITLE3=Superman (It's Not Easy)
TTITLE4=Independent Woman
TTITLE5=Sunday Morning After
TTITLE6=Drive
TTITLE7=The Hindu Times
TTITLE8=Little L
TTITLE9=Take Ya Home
TTITLE10=Where's The Party At?
TTITLE11=Irresistable
TTITLE12=Insatiable
TTITLE13=Differences
TTITLE14=I Need You
TTITLE15=Cry
EXTD=
EXTT0=
EXTT1=
EXTT2=
EXTT3=
EXTT4=
EXTT5=
EXTT6=
EXTT7=
EXTT8=
EXTT9=
EXTT10=
EXTT11=
EXTT12=
EXTT13=
EXTT14=
EXTT15=
PLAYORDER=
